<?xml version="1.0" encoding="utf-8"?>
<!-- Generator: Adobe Illustrator 18.0.0, SVG Export Plug-In . SVG Version: 6.00 Build 0)  -->
<!DOCTYPE svg PUBLIC "-//W3C//DTD SVG 1.1//EN" "http://www.w3.org/Graphics/SVG/1.1/DTD/svg11.dtd">
<svg version="1.1" id="B" xmlns="http://www.w3.org/2000/svg" xmlns:xlink="http://www.w3.org/1999/xlink" x="0px" y="0px"
	 viewBox="0 0 100 100" enable-background="new 0 0 100 100" xml:space="preserve">
<g>
	<path d="M56.1,10.1c3.9,0,7.6,0.2,11.1,0.7c3.5,0.5,6.5,1.4,9.1,2.8c2.6,1.4,4.6,3.4,6.1,6.1c1.5,2.7,2.2,6.1,2.2,10.5
		c0,2.4-0.4,4.5-1.3,6.4c-0.8,1.9-2,3.5-3.4,4.9c-1.4,1.4-3.1,2.6-5,3.6c-1.9,1-3.9,1.7-6,2.2c6.6,0.6,11.7,2.5,15.4,5.7
		C88.1,56,90,60.5,90,66.3c0,4.5-0.7,8.3-2.1,11.3c-1.4,3-3.4,5.5-6,7.3s-5.9,3.2-9.7,4c-3.9,0.8-8.3,1.2-13.3,1.2H10V84
		c6.5,0,9.7-1.7,9.7-5V21.7c0-3.3-3.2-5-9.7-5v-6.6L56.1,10.1z M36.5,19.4v25.1h17.7c4.4,0,7.7-1,9.8-3.1c2.2-2.1,3.3-5.4,3.3-9.9
		c0-4.1-1.1-7.1-3.4-9.1c-2.3-2-5.5-3-9.7-3H36.5z M36.5,51.8v29.5H57c2.8,0,5.2-0.4,7.2-1.1c1.9-0.8,3.5-1.8,4.7-3.2
		c1.2-1.4,2.1-3,2.6-4.9s0.8-4.1,0.8-6.4c0-5-1.3-8.5-3.8-10.6c-2.6-2.1-6.3-3.2-11.4-3.2H36.5z"/>
</g>
</svg>
