<?xml version="1.0" encoding="utf-8"?>
<!-- Generator: Adobe Illustrator 18.0.0, SVG Export Plug-In . SVG Version: 6.00 Build 0)  -->
<!DOCTYPE svg PUBLIC "-//W3C//DTD SVG 1.1//EN" "http://www.w3.org/Graphics/SVG/1.1/DTD/svg11.dtd">
<svg version="1.1" id="Layer_8" xmlns="http://www.w3.org/2000/svg" xmlns:xlink="http://www.w3.org/1999/xlink" x="0px" y="0px"
	 viewBox="0 0 100 100" enable-background="new 0 0 100 100" xml:space="preserve">
<g>
	<path d="M59,37c-0.4-0.4-0.8-0.8-1.3-1.1L57,35.3l-8,8l13.4,13.4L39.3,79.8L25.1,65.6l6-6l-1.8-1.8c-1.9-1.9-3.4-3.9-4.6-6.1
		l-0.6-1.2l-4.4,4.4c-2.9,2.9-4.5,6.7-4.5,10.7s1.6,7.9,4.5,10.7l8.9,8.9c2.9,2.9,6.7,4.4,10.7,4.4s7.9-1.6,10.7-4.4l17.8-17.8
		c2.9-2.9,4.4-6.7,4.4-10.7c0-4.1-1.6-7.9-4.4-10.7L59,37z"/>
	<path d="M81.3,23.6l-8.9-8.9c-2.9-2.9-6.7-4.4-10.7-4.4c-4.1,0-7.9,1.6-10.7,4.4L33,32.6c-2.9,2.9-4.5,6.7-4.5,10.7
		c0,4.1,1.6,7.9,4.5,10.7l8.9,8.9c0.4,0.4,0.8,0.8,1.2,1.1l0.7,0.6l8-8L38.5,43.3l23.1-23.1l14.2,14.2l-6,6l1.8,1.8
		c1.9,1.9,3.5,3.9,4.7,6.1l0.7,1.1l2.7-2.7c2.9-2.9,6-8.2,6-12.3C85.7,30.3,84.1,26.5,81.3,23.6z"/>
</g>
</svg>
