<?xml version="1.0" encoding="utf-8"?>
<!-- Generator: Adobe Illustrator 18.0.0, SVG Export Plug-In . SVG Version: 6.00 Build 0)  -->
<!DOCTYPE svg PUBLIC "-//W3C//DTD SVG 1.1//EN" "http://www.w3.org/Graphics/SVG/1.1/DTD/svg11.dtd">
<svg version="1.1" xmlns="http://www.w3.org/2000/svg" xmlns:xlink="http://www.w3.org/1999/xlink" x="0px" y="0px"
	 viewBox="0 0 100 100" enable-background="new 0 0 100 100" xml:space="preserve">
<g id="B" display="none">
	<g display="inline">
		<path d="M56.1,10.1c3.9,0,7.6,0.2,11.1,0.7c3.5,0.5,6.5,1.4,9.1,2.8c2.6,1.4,4.6,3.4,6.1,6.1c1.5,2.7,2.2,6.1,2.2,10.5
			c0,2.4-0.4,4.5-1.3,6.4c-0.8,1.9-2,3.5-3.4,4.9c-1.4,1.4-3.1,2.6-5,3.6c-1.9,1-3.9,1.7-6,2.2c6.6,0.6,11.7,2.5,15.4,5.7
			C88.1,56,90,60.5,90,66.3c0,4.5-0.7,8.3-2.1,11.3c-1.4,3-3.4,5.5-6,7.3s-5.9,3.2-9.7,4c-3.9,0.8-8.3,1.2-13.3,1.2H10V84
			c6.5,0,9.7-1.7,9.7-5V21.7c0-3.3-3.2-5-9.7-5v-6.6L56.1,10.1z M36.5,19.4v25.1h17.7c4.4,0,7.7-1,9.8-3.1c2.2-2.1,3.3-5.4,3.3-9.9
			c0-4.1-1.1-7.1-3.4-9.1c-2.3-2-5.5-3-9.7-3H36.5z M36.5,51.8v29.5H57c2.8,0,5.2-0.4,7.2-1.1c1.9-0.8,3.5-1.8,4.7-3.2
			c1.2-1.4,2.1-3,2.6-4.9s0.8-4.1,0.8-6.4c0-5-1.3-8.5-3.8-10.6c-2.6-2.1-6.3-3.2-11.4-3.2H36.5z"/>
	</g>
</g>
<g id="I" display="none">
	<g display="inline">
		<path d="M78.6,16.2c-7.9,0-12.2,1.6-12.8,4.9L53.5,79.5c0,2.7,3.6,4.1,10.8,4.1l-1.3,6.2H19.5l1.3-6.2c3.9,0,6.9-0.4,9.1-1.2
			c2.2-0.8,3.5-2.1,3.8-3.7l12.1-58.2c0-2.8-3.6-4.2-10.8-4.2l1.4-6.2H80L78.6,16.2z"/>
	</g>
</g>
<g id="H" display="none">
	<g display="inline">
		<path d="M90.1,16.4c-5.8,0-8.7,1.6-8.7,5v57.5c0,3.3,2.9,5,8.7,5v6.1H57.4v-6.1c6.1,0,9.1-1.7,9.1-5V52H33.6v26.8c0,3.3,3,5,9.1,5
			v6.1H10.1v-6.1c5.8,0,8.6-1.6,8.6-5V21.4c0-3.3-2.9-5-8.6-5v-6.3h32.6v6.3c-6.1,0-9.1,1.6-9.1,4.9v22.8h32.9V21.3
			c0-3.3-3-4.9-9.1-4.9v-6.3h32.7V16.4z"/>
	</g>
</g>
<g id="Code">
	<g>
		<path d="M28.5,38.7V27.1c0-7.3,2.8-10.9,8.5-10.9h0.1V9.8h-0.1c-13,0-19.5,4.7-19.5,13.9V38c0,3.6-2.3,5.6-7.1,5.9l-0.1,0v7.7
			l0.1,0c4.7,0.6,7.1,2.6,7.1,6.1v18.6c0,9.2,6.6,13.8,19.5,13.8h0.1v-6h-0.1c-5.6,0-8.5-3.7-8.5-11V57c0-3.8-2.1-6.9-6.3-9.2
			C26.3,45.7,28.5,42.7,28.5,38.7z"/>
		<path d="M89.5,43.9c-4.7-0.4-7.1-2.3-7.1-5.9V23.7c0-9.2-6.6-13.9-19.5-13.9h-0.1v6.4h0.1c5.7,0,8.5,3.6,8.5,10.9v11.6
			c0,4,2.1,7,6.3,9.1c-4.2,2.3-6.3,5.4-6.3,9.2v16.2c0,7.4-2.8,11-8.5,11h-0.1v6h0.1c13,0,19.5-4.7,19.5-13.8V57.7
			c0-3.5,2.4-5.5,7.1-6.1l0.1,0V44L89.5,43.9z"/>
	</g>
</g>
<g id="o_list" display="none">
	<g display="inline">
		<path d="M9.6,59.5c0-2.5,1.1-4.8,2.9-6.5c1.6-1.5,3.4-2.4,4.9-3.4c1.4-1,2.5-1.9,2.5-3.3c0-1.5-0.9-2.4-2.4-2.4
			c-2.4,0-3.1,1.8-3.1,4H10c-0.3-4.9,2.7-8.1,7.4-8.1c3.7,0,7.1,2,7.1,6.2c0,3.8-2.6,5.1-5.4,6.9c-1.5,0.9-2.2,1.4-3.4,2.6h8.9v4.1
			H9.6z"/>
	</g>
	<g display="inline">
		<path d="M15.7,74.7c0.4,0,0.8,0.1,1.2,0c1.4,0,3.1-0.4,3.1-2.1c0-1.3-1.2-2-2.7-2c-1.9,0-2.9,1-2.9,2.8H10
			c0.1-4.4,3.2-6.7,7.2-6.7c3.3,0,7,1.4,7,5.4c0,1.7-0.9,3.5-2.6,3.8v0.1c2.2,0.6,3.2,2.2,3.2,4.5c0,4.4-3.9,6.3-7.6,6.3
			c-4.4,0-8-2.3-7.7-7.4h4.3c-0.1,2.3,1.1,3.5,3.4,3.5c1.6,0,3.1-0.7,3.1-2.4c0-2.2-1.5-2.7-3.4-2.7c-0.4,0-0.8,0-1.2,0.1V74.7z"/>
	</g>
	<g display="inline">
		<path d="M10.1,19.7v-3.5c2.7,0.1,5.4-1,5.6-4h3.8v19.6h-4.9v-12H10.1z"/>
	</g>
	<rect x="33.2" y="15.3" display="inline" width="56.8" height="13.8"/>
	<rect x="33.2" y="43" display="inline" width="56.8" height="13.8"/>
	<rect x="33.2" y="70.3" display="inline" width="56.8" height="13.8"/>
</g>
<g id="Layer_7" display="none">
	<g display="inline">
		<rect x="33.2" y="15.3" width="56.8" height="13.8"/>
		<rect x="33.2" y="43" width="56.8" height="13.8"/>
		<rect x="33.2" y="70.3" width="56.8" height="13.8"/>
		<circle cx="18.1" cy="22.1" r="7.9"/>
		<circle cx="18.1" cy="50" r="7.9"/>
		<circle cx="18.1" cy="77.1" r="7.9"/>
	</g>
</g>
<g id="Layer_8" display="none">
	<g display="inline">
		<path d="M59,37c-0.4-0.4-0.8-0.8-1.3-1.1L57,35.3l-8,8l13.4,13.4L39.3,79.8L25.1,65.6l6-6l-1.8-1.8c-1.9-1.9-3.4-3.9-4.6-6.1
			l-0.6-1.2l-4.4,4.4c-2.9,2.9-4.5,6.7-4.5,10.7s1.6,7.9,4.5,10.7l8.9,8.9c2.9,2.9,6.7,4.4,10.7,4.4s7.9-1.6,10.7-4.4l17.8-17.8
			c2.9-2.9,4.4-6.7,4.4-10.7c0-4.1-1.6-7.9-4.4-10.7L59,37z"/>
		<path d="M81.3,23.6l-8.9-8.9c-2.9-2.9-6.7-4.4-10.7-4.4c-4.1,0-7.9,1.6-10.7,4.4L33,32.6c-2.9,2.9-4.5,6.7-4.5,10.7
			c0,4.1,1.6,7.9,4.5,10.7l8.9,8.9c0.4,0.4,0.8,0.8,1.2,1.1l0.7,0.6l8-8L38.5,43.3l23.1-23.1l14.2,14.2l-6,6l1.8,1.8
			c1.9,1.9,3.5,3.9,4.7,6.1l0.7,1.1l2.7-2.7c2.9-2.9,6-8.2,6-12.3C85.7,30.3,84.1,26.5,81.3,23.6z"/>
	</g>
</g>
<g id="Layer_9" display="none">
	<g id="picture_1_" display="inline">
		<path id="picture_4_" d="M90,13.4c0-1.7-1.3-3.2-2.9-3.2H13.1c-1.6,0-2.9,1.4-2.9,3.2v73.1c0,1.7,1.3,3.2,2.9,3.2H87
			c1.6,0,2.9-1.4,2.9-3.2V13.4z M83.3,53.6L67.6,32.8l-19.5,23L53.1,67l-19.8-9.5L16.9,70.8V17.5h66.4V53.6z M41.9,35.5
			c0-5.4-4-9.7-8.9-9.7c-4.9,0-8.9,4.3-8.9,9.7s4,9.7,8.9,9.7C37.9,45.2,41.9,40.9,41.9,35.5z"/>
	</g>
</g>
<g id="Layer_10" display="none">
</g>
<g id="Layer_11" display="none">
	<path display="inline" d="M10,27.2h64.7v10.9H10V27.2z M10,10.2h80v10.9H10V10.2z"/>
	<path display="inline" d="M10,44.5h11.4v10.9H10V44.5z"/>
	<path display="inline" d="M32.9,44.5h11.4v10.9H32.9V44.5z"/>
	<path display="inline" d="M55.8,44.5h11.4v10.9H55.8V44.5z"/>
	<path display="inline" d="M78.8,44.5h11.4v10.9H78.8V44.5z"/>
	<path display="inline" d="M10,61.5h79.9v10.9H10V61.5z"/>
	<path display="inline" d="M10,78.8h63.6v10.9H10V78.8z"/>
</g>
<g id="Layer_12" display="none">
	<g id="share-alt_1_" display="inline">
		<path d="M49.9,90.1L10,50.3l39.9-40.2v24.1C78.5,36.1,88.8,60,89.8,90c-6.5-18.9-23.9-26.1-39.9-26.6V90.1z"/>
	</g>
</g>
<g id="Layer_13" display="none">
	<g id="share-alt_2_" display="inline">
		<path d="M49.9,90.1l39.9-39.8L49.9,10.1v24.1C21.4,36.1,11,60,10,90c6.5-18.9,23.9-26.1,39.9-26.6V90.1z"/>
	</g>
</g>
</svg>
