<?xml version="1.0" encoding="utf-8"?>
<!-- Generator: Adobe Illustrator 18.0.0, SVG Export Plug-In . SVG Version: 6.00 Build 0)  -->
<!DOCTYPE svg PUBLIC "-//W3C//DTD SVG 1.1//EN" "http://www.w3.org/Graphics/SVG/1.1/DTD/svg11.dtd">
<svg version="1.1" id="H" xmlns="http://www.w3.org/2000/svg" xmlns:xlink="http://www.w3.org/1999/xlink" x="0px" y="0px"
	 viewBox="0 0 100 100" enable-background="new 0 0 100 100" xml:space="preserve">
<g>
	<path d="M90.1,16.4c-5.8,0-8.7,1.6-8.7,5v57.5c0,3.3,2.9,5,8.7,5v6.1H57.4v-6.1c6.1,0,9.1-1.7,9.1-5V52H33.6v26.8c0,3.3,3,5,9.1,5
		v6.1H10.1v-6.1c5.8,0,8.6-1.6,8.6-5V21.4c0-3.3-2.9-5-8.6-5v-6.3h32.6v6.3c-6.1,0-9.1,1.6-9.1,4.9v22.8h32.9V21.3
		c0-3.3-3-4.9-9.1-4.9v-6.3h32.7V16.4z"/>
</g>
</svg>
