<?xml version="1.0" encoding="utf-8"?>
<!-- Generator: Adobe Illustrator 18.0.0, SVG Export Plug-In . SVG Version: 6.00 Build 0)  -->
<!DOCTYPE svg PUBLIC "-//W3C//DTD SVG 1.1//EN" "http://www.w3.org/Graphics/SVG/1.1/DTD/svg11.dtd">
<svg version="1.1" id="Layer_9" xmlns="http://www.w3.org/2000/svg" xmlns:xlink="http://www.w3.org/1999/xlink" x="0px" y="0px"
	 viewBox="0 0 100 100" enable-background="new 0 0 100 100" xml:space="preserve">
<g id="picture_1_">
	<path id="picture_4_" d="M90,13.4c0-1.7-1.3-3.2-2.9-3.2H13.1c-1.6,0-2.9,1.4-2.9,3.2v73.1c0,1.7,1.3,3.2,2.9,3.2H87
		c1.6,0,2.9-1.4,2.9-3.2V13.4z M83.3,53.6L67.6,32.8l-19.5,23L53.1,67l-19.8-9.5L16.9,70.8V17.5h66.4V53.6z M41.9,35.5
		c0-5.4-4-9.7-8.9-9.7c-4.9,0-8.9,4.3-8.9,9.7s4,9.7,8.9,9.7C37.9,45.2,41.9,40.9,41.9,35.5z"/>
</g>
</svg>
