<?xml version="1.0" encoding="utf-8"?>
<!-- Generator: Adobe Illustrator 18.0.0, SVG Export Plug-In . SVG Version: 6.00 Build 0)  -->
<!DOCTYPE svg PUBLIC "-//W3C//DTD SVG 1.1//EN" "http://www.w3.org/Graphics/SVG/1.1/DTD/svg11.dtd">
<svg version="1.1" id="Layer_15" xmlns="http://www.w3.org/2000/svg" xmlns:xlink="http://www.w3.org/1999/xlink" x="0px" y="0px"
	 viewBox="0 0 100 100" enable-background="new 0 0 100 100" xml:space="preserve">
<g>
	<path d="M17.9,76c0.6,0,1.1,0.1,1.7,0c1.9,0,4.1-0.4,4.1-2.4c0-1.5-1.6-2.3-3.7-2.3c-2.5,0-4,1.1-4,3.2h-5.8
		c0.1-5.1,4.3-7.7,9.8-7.7c4.4,0,9.5,1.7,9.5,6.3c0,2-1.2,4.1-3.6,4.4v0.1c2.9,0.7,4.4,2.5,4.4,5.2c0,5.1-5.2,7.3-10.3,7.3
		c-5.9,0-10.9-2.7-10.5-8.6h5.8c-0.1,2.7,1.5,4.1,4.6,4.1c2.1,0,4.1-0.9,4.1-2.8c0-2.5-2.1-3.1-4.5-3.1c-0.6,0-1.1,0-1.7,0.1V76z"/>
</g>
<g>
	<path d="M9.6,60.6c0-2.8,1.4-5.4,3.9-7.3c2.1-1.6,4.5-2.7,6.4-3.8c1.9-1.1,3.2-2.2,3.2-3.7c0-1.7-1.2-2.7-3.2-2.7
		c-3.2,0-4.1,2-4.1,4.4h-5.6c-0.4-5.4,3.6-9.1,9.7-9.1c4.9,0,9.2,2.3,9.2,7c0,4.2-3.4,5.8-7,7.8c-1.9,1-2.8,1.6-4.5,3h11.7v4.5H9.6z
		"/>
</g>
<g>
	<path d="M10.3,18.3v-4.2c3.7,0.1,7.4-1.2,7.7-4.8h5.3v23.1h-6.7V18.3H10.3z"/>
</g>
<rect x="38.6" y="16" width="51.4" height="10.8"/>
<rect x="38.6" y="45.3" width="51.4" height="10.8"/>
<rect x="38.6" y="73.3" width="51.4" height="10.8"/>
</svg>
